<svg width="17" height="16" viewBox="0 0 17 16" fill="none" xmlns="http://www.w3.org/2000/svg">
<g clip-path="url(#clip0)">
<path d="M13.4934 10.5V8.5H8.99341V10.5H7.99341V8.5H3.49341V10.5H2.49341V8C2.49341 7.71875 2.71216 7.5 2.99341 7.5H7.99341V5H8.99341V7.5H13.9934C14.2747 7.5 14.4934 7.71875 14.4934 8V10.5H13.4934Z" fill="url(#paint0_linear)"/>
<path fill-rule="evenodd" clip-rule="evenodd" d="M6.49341 2H10.4934C10.7747 2 10.9934 2.21875 10.9934 2.5V5.5C10.9934 5.78125 10.7747 6 10.4934 6H6.49341C6.21216 6 5.99341 5.78125 5.99341 5.5V2.5C5.99341 2.21875 6.21216 2 6.49341 2Z" fill="url(#paint1_linear)"/>
<path fill-rule="evenodd" clip-rule="evenodd" d="M0.993408 10H4.99341C5.27466 10 5.49341 10.2188 5.49341 10.5V13.5C5.49341 13.7812 5.27466 14 4.99341 14H0.993408C0.712158 14 0.493408 13.7812 0.493408 13.5V10.5C0.493408 10.2188 0.712158 10 0.993408 10Z" fill="url(#paint2_linear)"/>
<path fill-rule="evenodd" clip-rule="evenodd" d="M6.49341 10H10.4934C10.7747 10 10.9934 10.2188 10.9934 10.5V13.5C10.9934 13.7812 10.7747 14 10.4934 14H6.49341C6.21216 14 5.99341 13.7812 5.99341 13.5V10.5C5.99341 10.2188 6.21216 10 6.49341 10Z" fill="url(#paint3_linear)"/>
<path fill-rule="evenodd" clip-rule="evenodd" d="M11.9934 10H15.9934C16.2747 10 16.4934 10.2188 16.4934 10.5V13.5C16.4934 13.7812 16.2747 14 15.9934 14H11.9934C11.7122 14 11.4934 13.7812 11.4934 13.5V10.5C11.4934 10.2188 11.7122 10 11.9934 10Z" fill="url(#paint4_linear)"/>
</g>
<defs>
<linearGradient id="paint0_linear" x1="2.49341" y1="5" x2="6.99339" y2="10.5" gradientUnits="userSpaceOnUse">
<stop stop-color="#4B5A67"/>
<stop offset="1" stop-color="#44525E"/>
</linearGradient>
<linearGradient id="paint1_linear" x1="5.99341" y1="2" x2="9.98675" y2="5.99998" gradientUnits="userSpaceOnUse">
<stop stop-color="#4DB6F2"/>
<stop offset="1" stop-color="#19A1EE"/>
</linearGradient>
<linearGradient id="paint2_linear" x1="0.493408" y1="10" x2="4.48672" y2="14" gradientUnits="userSpaceOnUse">
<stop stop-color="#4DB6F2"/>
<stop offset="1" stop-color="#19A1EE"/>
</linearGradient>
<linearGradient id="paint3_linear" x1="5.99341" y1="10" x2="9.98672" y2="14" gradientUnits="userSpaceOnUse">
<stop stop-color="#4DB6F2"/>
<stop offset="1" stop-color="#19A1EE"/>
</linearGradient>
<linearGradient id="paint4_linear" x1="11.4934" y1="10" x2="15.4868" y2="14" gradientUnits="userSpaceOnUse">
<stop stop-color="#4DB6F2"/>
<stop offset="1" stop-color="#19A1EE"/>
</linearGradient>
<clipPath id="clip0">
<rect width="16" height="16" fill="white" transform="translate(0.493408)"/>
</clipPath>
</defs>
</svg>
