<svg width="15" height="14" viewBox="0 0 15 14" fill="none" xmlns="http://www.w3.org/2000/svg">
    <path d="M7.50004 0.333496C3.82004 0.333496 0.833374 3.32016 0.833374 7.00016C0.833374 10.6802 3.82004 13.6668 7.50004 13.6668C11.18 13.6668 14.1667 10.6802 14.1667 7.00016C14.1667 3.32016 11.18 0.333496 7.50004 0.333496ZM7.50004 10.3335C7.13337 10.3335 6.83337 10.0335 6.83337 9.66683V7.00016C6.83337 6.6335 7.13337 6.3335 7.50004 6.3335C7.86671 6.3335 8.16671 6.6335 8.16671 7.00016V9.66683C8.16671 10.0335 7.86671 10.3335 7.50004 10.3335ZM8.16671 5.00016H6.83337V3.66683H8.16671V5.00016Z" fill="#293136"/>
</svg>
